OpenSim_Sub01_CSStiffKnee_RCS.mot
version=1
nRows=75
nColumns=11
inDegrees=no
endheader
time	Top_Thigh	Med_Thigh	Bot_Thigh	Top_Shank	2nd_Top_Shank	2nd_Bot_Shank	Bot_Shank	BNOx	BNOy	BNOZ
40.35000000	1296.39324469	1245.27407388	1162.79390660	961.80931433	1060.44855758	933.54606425	920.58656741	8.78142665	-78.45255998	285.89377032
40.36000000	1297.40813567	1246.08150469	1163.93375550	962.34163805	1060.52626131	934.28157371	920.69503906	9.26413954	-78.16533247	303.44124817
40.37000000	1297.95129973	1246.12439869	1164.34127847	962.92026519	1060.54247905	935.01922287	920.72502525	9.75664396	-77.85770113	305.12945724
40.38000000	1298.12419912	1245.56642402	1164.16023599	963.50485283	1060.50962528	935.74591822	920.69106754	10.25973627	-77.53223068	294.21016153
40.39000000	1298.02829605	1244.57124880	1163.53438856	964.05505806	1060.44011452	936.44856626	920.60770752	10.77421284	-77.19148586	273.93512501
40.40000000	1297.76505276	1243.30254118	1162.60749667	964.53053797	1060.34636124	937.11407346	920.48948678	11.30087003	-76.83803140	247.55611169
40.41000000	1297.43593147	1241.92396927	1161.52332083	964.89094966	1060.24077996	937.72934632	920.35094690	11.84050420	-76.47443203	218.32488556
40.42000000	1297.14239440	1240.59920122	1160.42562152	965.09595020	1060.13578517	938.28129132	920.20662945	12.39391171	-76.10325248	189.49321059
40.43000000	1296.98590378	1239.49190515	1159.45815923	965.10519670	1060.04379137	938.75681497	920.07107603	12.96188892	-75.72705748	164.31285078
40.44000000	1297.06565790	1238.76293055	1158.76240210	964.87947966	1059.97701670	939.14310622	919.95868733	13.54504730	-75.34840870	145.98237790
40.45000000	1297.39284415	1238.46355217	1158.39070240	964.42365141	1059.94004587	939.43833531	919.87838749	14.13681013	-74.96974849	135.63251569
40.46000000	1297.86432067	1238.50270330	1158.27964777	963.79980214	1059.92754749	939.65493756	919.83198638	14.72126300	-74.59336419	131.70778021
40.47000000	1298.36930479	1238.77980430	1158.35808911	963.07384733	1059.93352746	939.80630163	919.82081841	15.28186745	-74.22153281	132.47316373
40.48000000	1298.79701382	1239.19427555	1158.55487731	962.31170248	1059.95199169	939.90581620	919.84621799	15.80208501	-73.85653134	136.19365852
40.49000000	1299.03666511	1239.64553741	1158.79886328	961.57928307	1059.97694608	939.96686993	919.90951954	16.26537722	-73.50063677	141.13425685
40.50000000	1298.97751281	1240.03303134	1159.01891221	960.94249337	1060.00240183	940.00284961	920.01205480	16.65521196	-73.15612523	145.56029822
40.51000000	1298.55771233	1240.28417578	1159.16287598	960.45235041	1060.02938922	940.02465075	920.15162933	16.96346447	-72.82411601	148.19786739
40.52000000	1297.86072235	1240.40951904	1159.23502276	960.11563587	1060.07979483	940.03576634	920.31557098	17.20699138	-72.50229103	149.14209118
40.53000000	1296.99686592	1240.43497886	1159.25005122	959.93095297	1060.17936126	940.03832077	920.48927046	17.40726797	-72.18769668	148.74121118
40.54000000	1296.07646608	1240.38647295	1159.22266005	959.89690492	1060.35383108	940.03443843	920.65811848	17.58576954	-71.87737936	147.34346897
40.55000000	1295.20984585	1240.28991905	1159.16754792	960.01209496	1060.62894689	940.02624369	920.80750574	17.76397136	-71.56838548	145.29710614
40.56000000	1294.50732828	1240.17123491	1159.09941351	960.27512630	1061.03045127	940.01586096	920.92282295	17.96334874	-71.25776142	142.95036430
40.57000000	1294.07923641	1240.05633824	1159.03295549	960.68460216	1061.58408680	940.00541460	920.98946083	18.20537695	-70.94255360	140.65148503
40.58000000	1294.03359242	1239.97077038	1158.98266361	961.23848460	1062.31439158	939.99700176	920.99311284	18.51115915	-70.61986284	138.74391050
40.59000000	1294.38897301	1239.92544009	1158.95490505	961.90980952	1063.19907835	939.99165976	920.93124308	18.88733169	-70.28890583	137.38450565
40.60000000	1295.04776199	1239.91224792	1158.94549553	962.63923298	1064.15503212	939.98904927	920.81660602	19.32173797	-69.95164792	136.48776494
40.61000000	1295.90457782	1239.92182406	1158.94954562	963.36524698	1065.09507268	939.98873893	920.66297804	19.80096547	-69.61023809	135.95198482
40.62000000	1296.85403896	1239.94479870	1158.96216584	964.02634357	1065.93201982	939.99029739	920.48413550	20.31160165	-69.26682536	135.67546174
40.63000000	1297.79076386	1239.97180203	1158.97846676	964.56101478	1066.57869334	939.99329330	920.29385478	20.84023398	-68.92355875	135.55649215
40.64000000	1298.60937099	1239.99346425	1158.99355892	964.90775262	1066.94791301	939.99729531	920.10591223	21.37344992	-68.58258725	135.49337250
40.65000000	1299.20617214	1240.00058426	1159.00263078	965.00631385	1066.95431888	940.00187179	919.93398701	21.89810535	-68.24602097	135.38559261
40.66000000	1299.54330860	1239.99052015	1159.00389941	964.84562083	1066.58331308	940.00658044	919.78797865	22.41149106	-67.91445704	135.17903476
40.67000000	1299.66843639	1239.96915058	1158.99951620	964.47846387	1065.91222023	940.01096509	919.67287683	22.92445308	-67.58652723	134.87984671
40.68000000	1299.63492666	1239.94292365	1158.99189545	963.96190163	1065.02450828	940.01456866	919.59334309	23.44874340	-67.26073195	134.49820382
40.69000000	1299.49615053	1239.91828747	1158.98345149	963.35299280	1064.00364517	940.01693404	919.55403899	23.99611400	-66.93557161	134.04428147
40.70000000	1299.30547916	1239.90169014	1158.97659861	962.70879607	1062.93309886	940.01760415	919.55962607	24.57831685	-66.60954665	133.52825504
40.71000000	1299.11628366	1239.89957977	1158.97375114	962.08637012	1061.89633728	940.01612190	919.61476588	25.20710394	-66.28115746	132.96029992
40.72000000	1298.98193519	1239.91840447	1158.97732337	961.54277362	1060.97682840	940.01203019	919.72411997	25.89422723	-65.94890447	132.35059148
40.73000000	1298.95580487	1239.96461234	1158.98972964	961.13506528	1060.25804015	940.00487193	919.89234988	26.65143870	-65.61128808	131.70930511
40.74000000	1299.08809329	1240.04340047	1159.01298168	960.91735795	1059.81995583	939.99433094	920.12308608	27.48964551	-65.26686307	131.04648681
40.75000000	1299.35607834	1240.13119245	1159.03983249	960.87601073	1059.66241146	939.98333217	920.39624423	28.40032388	-64.91543421	130.36920725
40.76000000	1299.66411522	1240.17563840	1159.05377627	960.92962898	1059.70509583	939.97804164	920.66802515	29.35551909	-64.55805626	129.68156172
40.77000000	1299.91338857	1240.12313741	1159.03790468	960.99387220	1059.86421307	939.98476631	920.89359862	30.32643160	-64.19583836	128.98751616
40.78000000	1300.00593612	1239.92082327	1158.97569620	960.98505248	1060.05628892	940.00972482	921.02843131	31.28444687	-63.82986565	128.29100827
40.79000000	1299.90979851	1239.57267348	1158.88055838	960.86996920	1060.22273320	940.05230213	921.05096495	32.21526331	-63.45936711	127.59379233
40.80000000	1299.70489590	1239.17901961	1158.81663060	960.70100130	1060.34713597	940.10029969	920.97858544	33.12884085	-63.08042548	126.89392148
40.81000000	1299.48198572	1238.84952656	1158.85296642	960.53881742	1060.41717308	940.14039690	920.83245105	34.03748948	-62.68881871	126.18909036
40.82000000	1299.33182537	1238.69385927	1159.05861938	960.44408617	1060.42052039	940.15927315	920.63372002	34.95351920	-62.28032475	125.47699361
40.83000000	1299.34517227	1238.82168264	1159.50264302	960.47747617	1060.34485376	940.14360785	920.40355061	35.88924003	-61.85072157	124.75532588
40.84000000	1299.61278383	1239.34266159	1160.25409090	960.69965605	1060.17784904	940.08008039	920.16310109	36.85696197	-61.39578712	124.02178180
40.85000000	1300.22393708	1240.36485064	1161.38072344	961.17024184	1059.90718756	939.95533654	919.93346257	37.86892541	-60.91134705	123.27406627
40.86000000	1301.15337018	1241.87170612	1162.85025305	961.86740918	1059.52097353	939.75341989	919.73053172	38.93198428	-60.39691700	122.51067746
40.87000000	1302.18167000	1243.63548182	1164.46080374	962.63128666	1059.00802797	939.45396316	919.56140025	40.04386213	-59.85826734	121.73145819
40.88000000	1303.07061691	1245.40797335	1165.99407229	963.28863092	1058.35724135	939.03617184	919.43230697	41.20139808	-59.30177437	120.93638153
40.89000000	1303.58199125	1246.94097630	1167.23175548	963.66619855	1057.55750413	938.47925139	919.34949071	42.40143125	-58.73381433	120.12542057
40.90000000	1303.47757337	1247.98628627	1167.95555012	963.59074619	1056.59770677	937.76240726	919.31919028	43.64080078	-58.16076351	119.29854837
40.91000000	1302.51914364	1248.29569885	1167.94715297	962.88903046	1055.46673974	936.86484495	919.34764450	44.91634578	-57.58899817	118.45573801
40.92000000	1300.46848239	1247.62100966	1166.98826082	961.38780797	1054.15349349	935.76576990	919.44109217	46.22490538	-57.02489457	117.59696256
40.93000000	1297.08736999	1245.71401428	1164.86057046	958.91383534	1052.64685850	934.44438760	919.60577213	47.56331870	-56.47482900	116.72219511
40.94000000	1292.13758679	1242.32650832	1161.34577868	955.29386920	1050.93572523	932.87990351	919.84792318	48.92842487	-55.94517771	115.83140871
40.95000000	1285.40009847	1237.22801773	1156.24187917	950.37013577	1049.01224419	931.05447246	920.17067548	50.31744823	-55.44158441	114.92454147
40.96000000	1277.09713321	1230.59586666	1149.72169472	944.34066243	1046.94354742	929.01808465	920.50565979	51.73647317	-54.95284406	114.00072689
40.97000000	1267.89218172	1223.01517744	1142.33287717	937.75927766	1044.87174840	926.88856565	920.71300751	53.20044413	-54.45090285	113.05829389
40.98000000	1258.46792002	1215.08880277	1134.63937530	931.19527960	1042.94222070	924.78669039	920.64974138	54.72469077	-53.90697439	112.09553639
40.99000000	1249.50702413	1207.41959533	1127.20513788	925.21796634	1041.30033789	922.83323380	920.17288412	56.32454273	-53.29227233	111.11074834
41	1241.69217008	1200.61040783	1120.59411367	920.39663600	1040.09147354	921.14897082	919.13945845	58.01532969	-52.57801028	110.10222367
41.01000000	1235.60769650	1195.18456830	1115.29840606	917.20900603	1039.43610319	919.83630329	917.44643324	59.80737361	-51.74146399	109.06967780
41.02000000	1231.30605680	1191.23527356	1111.42152268	915.63745433	1039.32003455	918.89825723	915.20683709	61.68391106	-50.79269783	108.02051473
41.03000000	1228.66070067	1188.71096154	1108.93619086	915.49765433	1039.68375345	918.30441408	912.60641261	63.61906311	-49.75281105	106.96472602
41.04000000	1227.54494290	1187.55996112	1107.81503940	916.60515388	1040.46771152	918.02433012	909.83095722	65.58694398	-48.64291120	105.91230516
41.05000000	1227.83209828	1187.73060116	1108.03069708	918.77550079	1041.61236045	918.02756160	907.06626831	67.56166786	-47.48410583	104.87324565
41.06000000	1229.39548160	1189.17121051	1109.55579271	921.82424288	1043.05815188	918.28366477	904.49814329	69.51734896	-46.29750252	103.85754099
41.07000000	1232.10840764	1191.83011804	1112.36295506	925.56692799	1044.74553747	918.76219591	902.31237957	71.42810150	-45.10420881	102.87518468
41.08000000	1235.84419121	1195.65565261	1116.42481294	929.81910393	1046.61496888	919.43271126	900.69477456	73.26803967	-43.92533227	101.93617021
41.09000000	1240.47570315	1200.59465390	1121.71225252	934.39640963	1048.60683982	920.26470384	899.82966167	75.01122283	-42.78203995	101.05054090
